<mxfile host="app.diagrams.net" modified="2021-06-12T11:50:00.624Z" agent="5.0 (Windows NT 10.0; Win64; x64) AppleWebKit/537.36 (KHTML, like Gecko) Chrome/91.0.4472.77 Safari/537.36 Edg/91.0.864.41" etag="Ja8MYsMtRbi8W9SHWBPW" version="14.7.7" type="github">
  <diagram id="p801fJ-4GE8LvIT7qMId" name="Page-1">
    <mxGraphModel dx="1422" dy="773" grid="1" gridSize="10" guides="1" tooltips="1" connect="1" arrows="1" fold="1" page="1" pageScale="1" pageWidth="3300" pageHeight="4681" math="0" shadow="0">
      <root>
        <mxCell id="0" />
        <mxCell id="1" parent="0" />
        <mxCell id="LuTiL_DvutiMw9GciKqi-8" value="" style="edgeStyle=orthogonalEdgeStyle;rounded=0;orthogonalLoop=1;jettySize=auto;html=1;" edge="1" parent="1" source="LuTiL_DvutiMw9GciKqi-1" target="LuTiL_DvutiMw9GciKqi-2">
          <mxGeometry relative="1" as="geometry" />
        </mxCell>
        <mxCell id="LuTiL_DvutiMw9GciKqi-1" value="Start" style="rounded=1;whiteSpace=wrap;html=1;" vertex="1" parent="1">
          <mxGeometry x="940" y="80" width="120" height="60" as="geometry" />
        </mxCell>
        <mxCell id="LuTiL_DvutiMw9GciKqi-7" value="" style="edgeStyle=orthogonalEdgeStyle;rounded=0;orthogonalLoop=1;jettySize=auto;html=1;" edge="1" parent="1" source="LuTiL_DvutiMw9GciKqi-2" target="LuTiL_DvutiMw9GciKqi-4">
          <mxGeometry relative="1" as="geometry">
            <mxPoint x="1000" y="310" as="targetPoint" />
          </mxGeometry>
        </mxCell>
        <mxCell id="LuTiL_DvutiMw9GciKqi-12" value="" style="edgeStyle=orthogonalEdgeStyle;rounded=0;orthogonalLoop=1;jettySize=auto;html=1;entryX=0.6;entryY=-0.008;entryDx=0;entryDy=0;entryPerimeter=0;" edge="1" parent="1" source="LuTiL_DvutiMw9GciKqi-2" target="LuTiL_DvutiMw9GciKqi-5">
          <mxGeometry relative="1" as="geometry">
            <mxPoint x="1160" y="200" as="targetPoint" />
          </mxGeometry>
        </mxCell>
        <mxCell id="LuTiL_DvutiMw9GciKqi-2" value="input name of menu" style="rounded=0;whiteSpace=wrap;html=1;" vertex="1" parent="1">
          <mxGeometry x="940" y="170" width="120" height="60" as="geometry" />
        </mxCell>
        <mxCell id="LuTiL_DvutiMw9GciKqi-10" value="" style="edgeStyle=orthogonalEdgeStyle;rounded=0;orthogonalLoop=1;jettySize=auto;html=1;" edge="1" parent="1" source="LuTiL_DvutiMw9GciKqi-4">
          <mxGeometry relative="1" as="geometry">
            <mxPoint x="1000" y="150" as="targetPoint" />
            <Array as="points">
              <mxPoint x="740" y="280" />
            </Array>
          </mxGeometry>
        </mxCell>
        <mxCell id="LuTiL_DvutiMw9GciKqi-4" value="no input" style="rounded=0;whiteSpace=wrap;html=1;" vertex="1" parent="1">
          <mxGeometry x="800" y="250" width="120" height="60" as="geometry" />
        </mxCell>
        <mxCell id="LuTiL_DvutiMw9GciKqi-14" value="" style="edgeStyle=orthogonalEdgeStyle;rounded=0;orthogonalLoop=1;jettySize=auto;html=1;" edge="1" parent="1" source="LuTiL_DvutiMw9GciKqi-5" target="LuTiL_DvutiMw9GciKqi-13">
          <mxGeometry relative="1" as="geometry" />
        </mxCell>
        <mxCell id="LuTiL_DvutiMw9GciKqi-26" value="" style="edgeStyle=orthogonalEdgeStyle;rounded=0;orthogonalLoop=1;jettySize=auto;html=1;" edge="1" parent="1" source="LuTiL_DvutiMw9GciKqi-5">
          <mxGeometry relative="1" as="geometry">
            <mxPoint x="1270" y="350" as="targetPoint" />
          </mxGeometry>
        </mxCell>
        <mxCell id="LuTiL_DvutiMw9GciKqi-5" value="input quantity of menu" style="rounded=0;whiteSpace=wrap;html=1;" vertex="1" parent="1">
          <mxGeometry x="1080" y="250" width="120" height="60" as="geometry" />
        </mxCell>
        <mxCell id="LuTiL_DvutiMw9GciKqi-13" value="no input or enter something but not number" style="rounded=0;whiteSpace=wrap;html=1;" vertex="1" parent="1">
          <mxGeometry x="1000" y="340" width="120" height="60" as="geometry" />
        </mxCell>
        <mxCell id="LuTiL_DvutiMw9GciKqi-22" value="" style="endArrow=classic;html=1;exitX=0;exitY=0.5;exitDx=0;exitDy=0;" edge="1" parent="1" source="LuTiL_DvutiMw9GciKqi-13">
          <mxGeometry width="50" height="50" relative="1" as="geometry">
            <mxPoint x="890" y="390" as="sourcePoint" />
            <mxPoint x="1150" y="220" as="targetPoint" />
            <Array as="points">
              <mxPoint x="960" y="260" />
            </Array>
          </mxGeometry>
        </mxCell>
        <mxCell id="LuTiL_DvutiMw9GciKqi-27" value="" style="edgeStyle=orthogonalEdgeStyle;rounded=0;orthogonalLoop=1;jettySize=auto;html=1;" edge="1" parent="1" source="LuTiL_DvutiMw9GciKqi-23" target="LuTiL_DvutiMw9GciKqi-24">
          <mxGeometry relative="1" as="geometry" />
        </mxCell>
        <mxCell id="LuTiL_DvutiMw9GciKqi-30" value="" style="edgeStyle=orthogonalEdgeStyle;rounded=0;orthogonalLoop=1;jettySize=auto;html=1;" edge="1" parent="1" source="LuTiL_DvutiMw9GciKqi-23" target="LuTiL_DvutiMw9GciKqi-29">
          <mxGeometry relative="1" as="geometry" />
        </mxCell>
        <mxCell id="LuTiL_DvutiMw9GciKqi-23" value="input category of menu" style="rounded=0;whiteSpace=wrap;html=1;" vertex="1" parent="1">
          <mxGeometry x="1200" y="340" width="120" height="60" as="geometry" />
        </mxCell>
        <mxCell id="LuTiL_DvutiMw9GciKqi-24" value="no input or not &#39;food&#39; or&#39; not &#39;drink&#39;" style="rounded=0;whiteSpace=wrap;html=1;" vertex="1" parent="1">
          <mxGeometry x="1130" y="430" width="120" height="60" as="geometry" />
        </mxCell>
        <mxCell id="LuTiL_DvutiMw9GciKqi-28" value="" style="endArrow=classic;html=1;exitX=0.25;exitY=0;exitDx=0;exitDy=0;" edge="1" parent="1" source="LuTiL_DvutiMw9GciKqi-24">
          <mxGeometry width="50" height="50" relative="1" as="geometry">
            <mxPoint x="1050" y="470" as="sourcePoint" />
            <mxPoint x="1270" y="310" as="targetPoint" />
            <Array as="points">
              <mxPoint x="1140" y="350" />
            </Array>
          </mxGeometry>
        </mxCell>
        <mxCell id="LuTiL_DvutiMw9GciKqi-32" value="" style="edgeStyle=orthogonalEdgeStyle;rounded=0;orthogonalLoop=1;jettySize=auto;html=1;" edge="1" parent="1" source="LuTiL_DvutiMw9GciKqi-29" target="LuTiL_DvutiMw9GciKqi-31">
          <mxGeometry relative="1" as="geometry" />
        </mxCell>
        <mxCell id="LuTiL_DvutiMw9GciKqi-29" value="input drink" style="rounded=0;whiteSpace=wrap;html=1;" vertex="1" parent="1">
          <mxGeometry x="1380" y="340" width="120" height="60" as="geometry" />
        </mxCell>
        <mxCell id="LuTiL_DvutiMw9GciKqi-39" value="" style="edgeStyle=orthogonalEdgeStyle;rounded=0;orthogonalLoop=1;jettySize=auto;html=1;entryX=0;entryY=0.5;entryDx=0;entryDy=0;" edge="1" parent="1" source="LuTiL_DvutiMw9GciKqi-31" target="LuTiL_DvutiMw9GciKqi-33">
          <mxGeometry relative="1" as="geometry">
            <mxPoint x="1610" y="290" as="targetPoint" />
            <Array as="points">
              <mxPoint x="1580" y="290" />
            </Array>
          </mxGeometry>
        </mxCell>
        <mxCell id="LuTiL_DvutiMw9GciKqi-42" value="" style="edgeStyle=orthogonalEdgeStyle;rounded=0;orthogonalLoop=1;jettySize=auto;html=1;" edge="1" parent="1" source="LuTiL_DvutiMw9GciKqi-31" target="LuTiL_DvutiMw9GciKqi-41">
          <mxGeometry relative="1" as="geometry" />
        </mxCell>
        <mxCell id="LuTiL_DvutiMw9GciKqi-31" value="continue Y or N" style="rounded=0;whiteSpace=wrap;html=1;" vertex="1" parent="1">
          <mxGeometry x="1550" y="340" width="120" height="60" as="geometry" />
        </mxCell>
        <mxCell id="LuTiL_DvutiMw9GciKqi-33" value="no input or not &#39;y&#39; or not &#39;n&#39;" style="rounded=0;whiteSpace=wrap;html=1;" vertex="1" parent="1">
          <mxGeometry x="1690" y="260" width="120" height="60" as="geometry" />
        </mxCell>
        <mxCell id="LuTiL_DvutiMw9GciKqi-40" value="" style="endArrow=classic;html=1;" edge="1" parent="1">
          <mxGeometry width="50" height="50" relative="1" as="geometry">
            <mxPoint x="1750" y="260" as="sourcePoint" />
            <mxPoint x="1530" y="370" as="targetPoint" />
            <Array as="points">
              <mxPoint x="1780" y="230" />
              <mxPoint x="1530" y="160" />
            </Array>
          </mxGeometry>
        </mxCell>
        <mxCell id="LuTiL_DvutiMw9GciKqi-41" value="input Y" style="rounded=0;whiteSpace=wrap;html=1;" vertex="1" parent="1">
          <mxGeometry x="1720" y="340" width="120" height="60" as="geometry" />
        </mxCell>
        <mxCell id="LuTiL_DvutiMw9GciKqi-43" value="" style="endArrow=classic;html=1;exitX=1;exitY=0.5;exitDx=0;exitDy=0;" edge="1" parent="1" source="LuTiL_DvutiMw9GciKqi-41">
          <mxGeometry width="50" height="50" relative="1" as="geometry">
            <mxPoint x="1850" y="370" as="sourcePoint" />
            <mxPoint x="1000" y="150" as="targetPoint" />
            <Array as="points">
              <mxPoint x="1900" y="370" />
              <mxPoint x="1940" y="120" />
            </Array>
          </mxGeometry>
        </mxCell>
        <mxCell id="LuTiL_DvutiMw9GciKqi-44" value="input N" style="rounded=0;whiteSpace=wrap;html=1;" vertex="1" parent="1">
          <mxGeometry x="1720" y="420" width="120" height="60" as="geometry" />
        </mxCell>
        <mxCell id="LuTiL_DvutiMw9GciKqi-46" value="" style="endArrow=classic;html=1;exitX=0.75;exitY=1;exitDx=0;exitDy=0;" edge="1" parent="1" source="LuTiL_DvutiMw9GciKqi-31">
          <mxGeometry width="50" height="50" relative="1" as="geometry">
            <mxPoint x="1680" y="490" as="sourcePoint" />
            <mxPoint x="1730" y="440" as="targetPoint" />
          </mxGeometry>
        </mxCell>
        <mxCell id="LuTiL_DvutiMw9GciKqi-50" value="" style="edgeStyle=orthogonalEdgeStyle;rounded=0;orthogonalLoop=1;jettySize=auto;html=1;" edge="1" parent="1" source="LuTiL_DvutiMw9GciKqi-47" target="LuTiL_DvutiMw9GciKqi-49">
          <mxGeometry relative="1" as="geometry" />
        </mxCell>
        <mxCell id="LuTiL_DvutiMw9GciKqi-47" value="input food" style="rounded=0;whiteSpace=wrap;html=1;" vertex="1" parent="1">
          <mxGeometry x="1380" y="490" width="120" height="60" as="geometry" />
        </mxCell>
        <mxCell id="LuTiL_DvutiMw9GciKqi-48" value="" style="endArrow=classic;html=1;" edge="1" parent="1" target="LuTiL_DvutiMw9GciKqi-47">
          <mxGeometry width="50" height="50" relative="1" as="geometry">
            <mxPoint x="1300" y="400" as="sourcePoint" />
            <mxPoint x="1350" y="350" as="targetPoint" />
          </mxGeometry>
        </mxCell>
        <mxCell id="LuTiL_DvutiMw9GciKqi-53" value="" style="edgeStyle=orthogonalEdgeStyle;rounded=0;orthogonalLoop=1;jettySize=auto;html=1;" edge="1" parent="1" source="LuTiL_DvutiMw9GciKqi-49" target="LuTiL_DvutiMw9GciKqi-51">
          <mxGeometry relative="1" as="geometry" />
        </mxCell>
        <mxCell id="LuTiL_DvutiMw9GciKqi-56" value="" style="edgeStyle=orthogonalEdgeStyle;rounded=0;orthogonalLoop=1;jettySize=auto;html=1;" edge="1" parent="1" source="LuTiL_DvutiMw9GciKqi-49" target="LuTiL_DvutiMw9GciKqi-54">
          <mxGeometry relative="1" as="geometry" />
        </mxCell>
        <mxCell id="LuTiL_DvutiMw9GciKqi-49" value="input warming option" style="rounded=0;whiteSpace=wrap;html=1;" vertex="1" parent="1">
          <mxGeometry x="1550" y="490" width="120" height="60" as="geometry" />
        </mxCell>
        <mxCell id="LuTiL_DvutiMw9GciKqi-51" value="no input or not&#39;warm&#39;or not &#39;cold&#39;" style="rounded=0;whiteSpace=wrap;html=1;" vertex="1" parent="1">
          <mxGeometry x="1550" y="580" width="120" height="60" as="geometry" />
        </mxCell>
        <mxCell id="LuTiL_DvutiMw9GciKqi-52" value="" style="endArrow=classic;html=1;" edge="1" parent="1">
          <mxGeometry width="50" height="50" relative="1" as="geometry">
            <mxPoint x="1550" y="620" as="sourcePoint" />
            <mxPoint x="1520" y="520" as="targetPoint" />
            <Array as="points">
              <mxPoint x="1520" y="620" />
            </Array>
          </mxGeometry>
        </mxCell>
        <mxCell id="LuTiL_DvutiMw9GciKqi-54" value="input warm" style="rounded=0;whiteSpace=wrap;html=1;" vertex="1" parent="1">
          <mxGeometry x="1720" y="500" width="120" height="60" as="geometry" />
        </mxCell>
        <mxCell id="LuTiL_DvutiMw9GciKqi-55" value="input cold" style="rounded=0;whiteSpace=wrap;html=1;" vertex="1" parent="1">
          <mxGeometry x="1720" y="580" width="120" height="60" as="geometry" />
        </mxCell>
        <mxCell id="LuTiL_DvutiMw9GciKqi-57" value="" style="endArrow=classic;html=1;entryX=0;entryY=0.5;entryDx=0;entryDy=0;" edge="1" parent="1" target="LuTiL_DvutiMw9GciKqi-55">
          <mxGeometry width="50" height="50" relative="1" as="geometry">
            <mxPoint x="1650" y="550" as="sourcePoint" />
            <mxPoint x="1700" y="500" as="targetPoint" />
          </mxGeometry>
        </mxCell>
      </root>
    </mxGraphModel>
  </diagram>
</mxfile>
